<mxfile host="Electron" modified="2024-05-03T16:48:14.797Z" agent="Mozilla/5.0 (Windows NT 10.0; Win64; x64) AppleWebKit/537.36 (KHTML, like Gecko) draw.io/24.0.4 Chrome/120.0.6099.109 Electron/28.1.0 Safari/537.36" etag="TWd4eduZBPMd2yZLm_46" version="24.0.4" type="device">
  <diagram name="Page-1" id="a9C6GNApuYLTn9c11G--">
    <mxGraphModel dx="1955" dy="654" grid="1" gridSize="10" guides="1" tooltips="1" connect="1" arrows="1" fold="1" page="1" pageScale="1" pageWidth="850" pageHeight="1100" math="0" shadow="0">
      <root>
        <mxCell id="0" />
        <mxCell id="1" parent="0" />
        <mxCell id="PbGV8xd9Yo9rjove0Gm5-1" value="Khách hàng" style="shape=umlActor;verticalLabelPosition=bottom;verticalAlign=top;html=1;outlineConnect=0;" vertex="1" parent="1">
          <mxGeometry x="50" y="10" width="40" height="70" as="geometry" />
        </mxCell>
        <mxCell id="PbGV8xd9Yo9rjove0Gm5-2" value="GUI" style="rounded=1;whiteSpace=wrap;html=1;fontSize=16;" vertex="1" parent="1">
          <mxGeometry x="210" y="15" width="120" height="60" as="geometry" />
        </mxCell>
        <mxCell id="PbGV8xd9Yo9rjove0Gm5-3" value="Controller" style="rounded=1;whiteSpace=wrap;html=1;fontSize=16;" vertex="1" parent="1">
          <mxGeometry x="425" y="10" width="120" height="60" as="geometry" />
        </mxCell>
        <mxCell id="PbGV8xd9Yo9rjove0Gm5-4" value="Database" style="rounded=1;whiteSpace=wrap;html=1;fontSize=16;" vertex="1" parent="1">
          <mxGeometry x="635" y="10" width="120" height="60" as="geometry" />
        </mxCell>
        <mxCell id="PbGV8xd9Yo9rjove0Gm5-5" value="" style="endArrow=none;dashed=1;html=1;rounded=0;entryX=0.5;entryY=0.5;entryDx=0;entryDy=0;entryPerimeter=0;" edge="1" parent="1">
          <mxGeometry width="50" height="50" relative="1" as="geometry">
            <mxPoint x="70" y="724.6000366210938" as="sourcePoint" />
            <mxPoint x="70" as="targetPoint" />
          </mxGeometry>
        </mxCell>
        <mxCell id="PbGV8xd9Yo9rjove0Gm5-6" value="" style="endArrow=none;dashed=1;html=1;rounded=0;entryX=0.5;entryY=1;entryDx=0;entryDy=0;" edge="1" parent="1" target="PbGV8xd9Yo9rjove0Gm5-2">
          <mxGeometry width="50" height="50" relative="1" as="geometry">
            <mxPoint x="270" y="721.3333129882812" as="sourcePoint" />
            <mxPoint x="270" y="120" as="targetPoint" />
          </mxGeometry>
        </mxCell>
        <mxCell id="PbGV8xd9Yo9rjove0Gm5-7" value="" style="endArrow=none;dashed=1;html=1;rounded=0;entryX=0.5;entryY=1;entryDx=0;entryDy=0;" edge="1" parent="1" target="PbGV8xd9Yo9rjove0Gm5-3">
          <mxGeometry width="50" height="50" relative="1" as="geometry">
            <mxPoint x="485" y="720" as="sourcePoint" />
            <mxPoint x="485" y="90" as="targetPoint" />
          </mxGeometry>
        </mxCell>
        <mxCell id="PbGV8xd9Yo9rjove0Gm5-8" value="" style="endArrow=none;dashed=1;html=1;rounded=0;entryX=0.5;entryY=1;entryDx=0;entryDy=0;" edge="1" parent="1" target="PbGV8xd9Yo9rjove0Gm5-4">
          <mxGeometry width="50" height="50" relative="1" as="geometry">
            <mxPoint x="695" y="720" as="sourcePoint" />
            <mxPoint x="695" y="110" as="targetPoint" />
          </mxGeometry>
        </mxCell>
        <mxCell id="PbGV8xd9Yo9rjove0Gm5-9" value="" style="rounded=0;whiteSpace=wrap;html=1;rotation=-90;" vertex="1" parent="1">
          <mxGeometry x="10" y="360" width="520" height="10" as="geometry" />
        </mxCell>
        <mxCell id="PbGV8xd9Yo9rjove0Gm5-10" value="" style="rounded=0;whiteSpace=wrap;html=1;rotation=-90;" vertex="1" parent="1">
          <mxGeometry x="224.38" y="360.63" width="521.25" height="10" as="geometry" />
        </mxCell>
        <mxCell id="PbGV8xd9Yo9rjove0Gm5-11" value="" style="rounded=0;whiteSpace=wrap;html=1;rotation=-90;" vertex="1" parent="1">
          <mxGeometry x="663.68" y="581.04" width="62.66" height="10" as="geometry" />
        </mxCell>
        <mxCell id="PbGV8xd9Yo9rjove0Gm5-13" value="" style="endArrow=none;dashed=1;html=1;rounded=0;entryX=0.5;entryY=0.5;entryDx=0;entryDy=0;entryPerimeter=0;" edge="1" parent="1" target="PbGV8xd9Yo9rjove0Gm5-12">
          <mxGeometry width="50" height="50" relative="1" as="geometry">
            <mxPoint x="70" y="620" as="sourcePoint" />
            <mxPoint x="70" y="45" as="targetPoint" />
          </mxGeometry>
        </mxCell>
        <mxCell id="PbGV8xd9Yo9rjove0Gm5-12" value="" style="rounded=0;whiteSpace=wrap;html=1;rotation=-90;" vertex="1" parent="1">
          <mxGeometry x="-217.5" y="387.5" width="575" height="10" as="geometry" />
        </mxCell>
        <mxCell id="PbGV8xd9Yo9rjove0Gm5-14" value="" style="endArrow=classic;html=1;rounded=0;exitX=0.975;exitY=0.98;exitDx=0;exitDy=0;exitPerimeter=0;entryX=0.974;entryY=0.024;entryDx=0;entryDy=0;entryPerimeter=0;" edge="1" parent="1" source="PbGV8xd9Yo9rjove0Gm5-12" target="PbGV8xd9Yo9rjove0Gm5-9">
          <mxGeometry width="50" height="50" relative="1" as="geometry">
            <mxPoint x="110" y="180" as="sourcePoint" />
            <mxPoint x="160" y="130" as="targetPoint" />
          </mxGeometry>
        </mxCell>
        <mxCell id="PbGV8xd9Yo9rjove0Gm5-15" value="Chọn đăng ký" style="edgeLabel;html=1;align=center;verticalAlign=middle;resizable=0;points=[];" vertex="1" connectable="0" parent="PbGV8xd9Yo9rjove0Gm5-14">
          <mxGeometry x="0.0034" relative="1" as="geometry">
            <mxPoint as="offset" />
          </mxGeometry>
        </mxCell>
        <mxCell id="PbGV8xd9Yo9rjove0Gm5-16" value="" style="endArrow=classic;html=1;rounded=0;entryX=0.961;entryY=-0.124;entryDx=0;entryDy=0;entryPerimeter=0;exitX=0.963;exitY=1.008;exitDx=0;exitDy=0;exitPerimeter=0;" edge="1" parent="1" source="PbGV8xd9Yo9rjove0Gm5-9" target="PbGV8xd9Yo9rjove0Gm5-10">
          <mxGeometry width="50" height="50" relative="1" as="geometry">
            <mxPoint x="280" y="141" as="sourcePoint" />
            <mxPoint x="470" y="140" as="targetPoint" />
          </mxGeometry>
        </mxCell>
        <mxCell id="PbGV8xd9Yo9rjove0Gm5-17" value="Chọn đăng ký" style="edgeLabel;html=1;align=center;verticalAlign=middle;resizable=0;points=[];" vertex="1" connectable="0" parent="PbGV8xd9Yo9rjove0Gm5-16">
          <mxGeometry x="0.0034" relative="1" as="geometry">
            <mxPoint as="offset" />
          </mxGeometry>
        </mxCell>
        <mxCell id="PbGV8xd9Yo9rjove0Gm5-18" value="" style="endArrow=none;html=1;rounded=0;entryX=0.961;entryY=-0.124;entryDx=0;entryDy=0;entryPerimeter=0;exitX=0.945;exitY=0.962;exitDx=0;exitDy=0;exitPerimeter=0;endFill=0;startArrow=classic;startFill=1;dashed=1;" edge="1" parent="1">
          <mxGeometry width="50" height="50" relative="1" as="geometry">
            <mxPoint x="274.6200000000001" y="161.89999999999998" as="sourcePoint" />
            <mxPoint x="479" y="163" as="targetPoint" />
          </mxGeometry>
        </mxCell>
        <mxCell id="PbGV8xd9Yo9rjove0Gm5-19" value="Hiển thị form đăng ký" style="edgeLabel;html=1;align=center;verticalAlign=middle;resizable=0;points=[];" vertex="1" connectable="0" parent="PbGV8xd9Yo9rjove0Gm5-18">
          <mxGeometry x="0.0034" relative="1" as="geometry">
            <mxPoint as="offset" />
          </mxGeometry>
        </mxCell>
        <mxCell id="PbGV8xd9Yo9rjove0Gm5-20" value="" style="endArrow=none;html=1;rounded=0;entryX=0.961;entryY=-0.124;entryDx=0;entryDy=0;entryPerimeter=0;exitX=0.89;exitY=1.2;exitDx=0;exitDy=0;exitPerimeter=0;endFill=0;startArrow=classic;startFill=1;dashed=1;" edge="1" parent="1" source="PbGV8xd9Yo9rjove0Gm5-12">
          <mxGeometry width="50" height="50" relative="1" as="geometry">
            <mxPoint x="60.379999999999995" y="170" as="sourcePoint" />
            <mxPoint x="264.38" y="171" as="targetPoint" />
          </mxGeometry>
        </mxCell>
        <mxCell id="PbGV8xd9Yo9rjove0Gm5-21" value="Hiển thị form đăng ký" style="edgeLabel;html=1;align=center;verticalAlign=middle;resizable=0;points=[];" vertex="1" connectable="0" parent="PbGV8xd9Yo9rjove0Gm5-20">
          <mxGeometry x="0.0034" relative="1" as="geometry">
            <mxPoint as="offset" />
          </mxGeometry>
        </mxCell>
        <mxCell id="PbGV8xd9Yo9rjove0Gm5-24" value="" style="endArrow=classic;html=1;rounded=0;exitX=0.975;exitY=0.98;exitDx=0;exitDy=0;exitPerimeter=0;entryX=0.974;entryY=0.024;entryDx=0;entryDy=0;entryPerimeter=0;" edge="1" parent="1">
          <mxGeometry width="50" height="50" relative="1" as="geometry">
            <mxPoint x="75" y="204.5" as="sourcePoint" />
            <mxPoint x="265" y="204.5" as="targetPoint" />
          </mxGeometry>
        </mxCell>
        <mxCell id="PbGV8xd9Yo9rjove0Gm5-25" value="Nhập số điện thoại và&lt;div&gt;yêu cầu mã OTP&lt;/div&gt;" style="edgeLabel;html=1;align=center;verticalAlign=middle;resizable=0;points=[];" vertex="1" connectable="0" parent="PbGV8xd9Yo9rjove0Gm5-24">
          <mxGeometry x="0.0034" relative="1" as="geometry">
            <mxPoint as="offset" />
          </mxGeometry>
        </mxCell>
        <mxCell id="PbGV8xd9Yo9rjove0Gm5-26" value="" style="endArrow=classic;html=1;rounded=0;entryX=0.961;entryY=-0.124;entryDx=0;entryDy=0;entryPerimeter=0;exitX=0.963;exitY=1.008;exitDx=0;exitDy=0;exitPerimeter=0;" edge="1" parent="1">
          <mxGeometry width="50" height="50" relative="1" as="geometry">
            <mxPoint x="275" y="211.5" as="sourcePoint" />
            <mxPoint x="479" y="211.5" as="targetPoint" />
          </mxGeometry>
        </mxCell>
        <mxCell id="PbGV8xd9Yo9rjove0Gm5-27" value="Yêu cầu mã OTP từ số điện thoại" style="edgeLabel;html=1;align=center;verticalAlign=middle;resizable=0;points=[];" vertex="1" connectable="0" parent="PbGV8xd9Yo9rjove0Gm5-26">
          <mxGeometry x="0.0034" relative="1" as="geometry">
            <mxPoint as="offset" />
          </mxGeometry>
        </mxCell>
        <mxCell id="PbGV8xd9Yo9rjove0Gm5-29" value="Mã OTP" style="shape=umlFrame;whiteSpace=wrap;html=1;pointerEvents=0;width=50;height=30;" vertex="1" parent="1">
          <mxGeometry x="10" y="230" width="510" height="100" as="geometry" />
        </mxCell>
        <mxCell id="PbGV8xd9Yo9rjove0Gm5-30" value="" style="endArrow=none;html=1;rounded=0;entryX=0.961;entryY=-0.124;entryDx=0;entryDy=0;entryPerimeter=0;exitX=0.945;exitY=0.962;exitDx=0;exitDy=0;exitPerimeter=0;endFill=0;startArrow=classic;startFill=1;dashed=1;" edge="1" parent="1">
          <mxGeometry width="50" height="50" relative="1" as="geometry">
            <mxPoint x="274.6200000000001" y="249.99999999999997" as="sourcePoint" />
            <mxPoint x="479" y="251.1" as="targetPoint" />
          </mxGeometry>
        </mxCell>
        <mxCell id="PbGV8xd9Yo9rjove0Gm5-31" value="Số điện thoại không tồn tại" style="edgeLabel;html=1;align=center;verticalAlign=middle;resizable=0;points=[];" vertex="1" connectable="0" parent="PbGV8xd9Yo9rjove0Gm5-30">
          <mxGeometry x="0.0034" relative="1" as="geometry">
            <mxPoint as="offset" />
          </mxGeometry>
        </mxCell>
        <mxCell id="PbGV8xd9Yo9rjove0Gm5-32" value="" style="endArrow=none;html=1;rounded=0;entryX=0.961;entryY=-0.124;entryDx=0;entryDy=0;entryPerimeter=0;exitX=0.933;exitY=1.011;exitDx=0;exitDy=0;exitPerimeter=0;endFill=0;startArrow=classic;startFill=1;dashed=1;" edge="1" parent="1">
          <mxGeometry width="50" height="50" relative="1" as="geometry">
            <mxPoint x="75" y="259.1" as="sourcePoint" />
            <mxPoint x="264.38" y="259.1" as="targetPoint" />
          </mxGeometry>
        </mxCell>
        <mxCell id="PbGV8xd9Yo9rjove0Gm5-33" value="Thông báo số điện thoại&lt;div&gt;không tồn tại&lt;/div&gt;" style="edgeLabel;html=1;align=center;verticalAlign=middle;resizable=0;points=[];" vertex="1" connectable="0" parent="PbGV8xd9Yo9rjove0Gm5-32">
          <mxGeometry x="0.0034" relative="1" as="geometry">
            <mxPoint as="offset" />
          </mxGeometry>
        </mxCell>
        <mxCell id="PbGV8xd9Yo9rjove0Gm5-34" value="" style="endArrow=none;html=1;rounded=0;entryX=0.998;entryY=0.333;entryDx=0;entryDy=0;entryPerimeter=0;endFill=0;startArrow=none;startFill=0;dashed=1;" edge="1" parent="1">
          <mxGeometry width="50" height="50" relative="1" as="geometry">
            <mxPoint x="10" y="280" as="sourcePoint" />
            <mxPoint x="518.94" y="279.6600000000001" as="targetPoint" />
          </mxGeometry>
        </mxCell>
        <mxCell id="PbGV8xd9Yo9rjove0Gm5-36" value="" style="endArrow=none;html=1;rounded=0;entryX=0.961;entryY=-0.124;entryDx=0;entryDy=0;entryPerimeter=0;exitX=0.945;exitY=0.962;exitDx=0;exitDy=0;exitPerimeter=0;endFill=0;startArrow=classic;startFill=1;dashed=1;" edge="1" parent="1">
          <mxGeometry width="50" height="50" relative="1" as="geometry">
            <mxPoint x="274.6200000000001" y="300.10999999999996" as="sourcePoint" />
            <mxPoint x="479" y="301.21" as="targetPoint" />
          </mxGeometry>
        </mxCell>
        <mxCell id="PbGV8xd9Yo9rjove0Gm5-37" value="Gửi mã OTP về số điện thoại" style="edgeLabel;html=1;align=center;verticalAlign=middle;resizable=0;points=[];" vertex="1" connectable="0" parent="PbGV8xd9Yo9rjove0Gm5-36">
          <mxGeometry x="0.0034" relative="1" as="geometry">
            <mxPoint as="offset" />
          </mxGeometry>
        </mxCell>
        <mxCell id="PbGV8xd9Yo9rjove0Gm5-38" value="" style="endArrow=none;html=1;rounded=0;entryX=0.961;entryY=-0.124;entryDx=0;entryDy=0;entryPerimeter=0;exitX=0.933;exitY=1.011;exitDx=0;exitDy=0;exitPerimeter=0;endFill=0;startArrow=classic;startFill=1;dashed=1;" edge="1" parent="1">
          <mxGeometry width="50" height="50" relative="1" as="geometry">
            <mxPoint x="75" y="309.21000000000004" as="sourcePoint" />
            <mxPoint x="264.38" y="309.21000000000004" as="targetPoint" />
          </mxGeometry>
        </mxCell>
        <mxCell id="PbGV8xd9Yo9rjove0Gm5-39" value="Thông báo đã gửi mã OTP" style="edgeLabel;html=1;align=center;verticalAlign=middle;resizable=0;points=[];" vertex="1" connectable="0" parent="PbGV8xd9Yo9rjove0Gm5-38">
          <mxGeometry x="0.0034" relative="1" as="geometry">
            <mxPoint as="offset" />
          </mxGeometry>
        </mxCell>
        <mxCell id="PbGV8xd9Yo9rjove0Gm5-40" value="" style="endArrow=classic;html=1;rounded=0;exitX=0.975;exitY=0.98;exitDx=0;exitDy=0;exitPerimeter=0;entryX=0.974;entryY=0.024;entryDx=0;entryDy=0;entryPerimeter=0;" edge="1" parent="1">
          <mxGeometry width="50" height="50" relative="1" as="geometry">
            <mxPoint x="75" y="350" as="sourcePoint" />
            <mxPoint x="265" y="350" as="targetPoint" />
          </mxGeometry>
        </mxCell>
        <mxCell id="PbGV8xd9Yo9rjove0Gm5-41" value="Gửi thông tin đăng ký và mã OTP&amp;nbsp;" style="edgeLabel;html=1;align=center;verticalAlign=middle;resizable=0;points=[];" vertex="1" connectable="0" parent="PbGV8xd9Yo9rjove0Gm5-40">
          <mxGeometry x="0.0034" relative="1" as="geometry">
            <mxPoint as="offset" />
          </mxGeometry>
        </mxCell>
        <mxCell id="PbGV8xd9Yo9rjove0Gm5-42" value="" style="endArrow=classic;html=1;rounded=0;entryX=0.961;entryY=-0.124;entryDx=0;entryDy=0;entryPerimeter=0;exitX=0.963;exitY=1.008;exitDx=0;exitDy=0;exitPerimeter=0;" edge="1" parent="1">
          <mxGeometry width="50" height="50" relative="1" as="geometry">
            <mxPoint x="275" y="357" as="sourcePoint" />
            <mxPoint x="479" y="357" as="targetPoint" />
          </mxGeometry>
        </mxCell>
        <mxCell id="PbGV8xd9Yo9rjove0Gm5-43" value="Yêu cầu mã OTP từ số điện thoại" style="edgeLabel;html=1;align=center;verticalAlign=middle;resizable=0;points=[];" vertex="1" connectable="0" parent="PbGV8xd9Yo9rjove0Gm5-42">
          <mxGeometry x="0.0034" relative="1" as="geometry">
            <mxPoint as="offset" />
          </mxGeometry>
        </mxCell>
        <mxCell id="PbGV8xd9Yo9rjove0Gm5-45" value="Xác nhận" style="shape=umlFrame;whiteSpace=wrap;html=1;pointerEvents=0;width=60;height=30;" vertex="1" parent="1">
          <mxGeometry y="370" width="720" height="270" as="geometry" />
        </mxCell>
        <mxCell id="PbGV8xd9Yo9rjove0Gm5-46" value="" style="endArrow=none;html=1;rounded=0;entryX=0.961;entryY=-0.124;entryDx=0;entryDy=0;entryPerimeter=0;exitX=0.945;exitY=0.962;exitDx=0;exitDy=0;exitPerimeter=0;endFill=0;startArrow=classic;startFill=1;dashed=1;" edge="1" parent="1">
          <mxGeometry width="50" height="50" relative="1" as="geometry">
            <mxPoint x="274.6200000000001" y="389.99999999999994" as="sourcePoint" />
            <mxPoint x="479" y="391.09999999999997" as="targetPoint" />
          </mxGeometry>
        </mxCell>
        <mxCell id="PbGV8xd9Yo9rjove0Gm5-47" value="Sai mã OTP&amp;nbsp;" style="edgeLabel;html=1;align=center;verticalAlign=middle;resizable=0;points=[];" vertex="1" connectable="0" parent="PbGV8xd9Yo9rjove0Gm5-46">
          <mxGeometry x="0.0034" relative="1" as="geometry">
            <mxPoint as="offset" />
          </mxGeometry>
        </mxCell>
        <mxCell id="PbGV8xd9Yo9rjove0Gm5-48" value="" style="endArrow=none;html=1;rounded=0;entryX=0.961;entryY=-0.124;entryDx=0;entryDy=0;entryPerimeter=0;exitX=0.933;exitY=1.011;exitDx=0;exitDy=0;exitPerimeter=0;endFill=0;startArrow=classic;startFill=1;dashed=1;" edge="1" parent="1">
          <mxGeometry width="50" height="50" relative="1" as="geometry">
            <mxPoint x="75" y="399.1" as="sourcePoint" />
            <mxPoint x="264.38" y="399.1" as="targetPoint" />
          </mxGeometry>
        </mxCell>
        <mxCell id="PbGV8xd9Yo9rjove0Gm5-49" value="Thông báo mã OTP&amp;nbsp;&lt;div&gt;không khớp với số điện thoại&lt;/div&gt;" style="edgeLabel;html=1;align=center;verticalAlign=middle;resizable=0;points=[];" vertex="1" connectable="0" parent="PbGV8xd9Yo9rjove0Gm5-48">
          <mxGeometry x="0.0034" relative="1" as="geometry">
            <mxPoint y="-1" as="offset" />
          </mxGeometry>
        </mxCell>
        <mxCell id="PbGV8xd9Yo9rjove0Gm5-50" value="" style="endArrow=none;html=1;rounded=0;endFill=0;startArrow=none;startFill=0;dashed=1;exitX=0;exitY=0.2;exitDx=0;exitDy=0;exitPerimeter=0;" edge="1" parent="1" source="PbGV8xd9Yo9rjove0Gm5-45">
          <mxGeometry width="50" height="50" relative="1" as="geometry">
            <mxPoint x="-4.470000000000227" y="419.58000000000004" as="sourcePoint" />
            <mxPoint x="720" y="424" as="targetPoint" />
          </mxGeometry>
        </mxCell>
        <mxCell id="PbGV8xd9Yo9rjove0Gm5-51" value="" style="endArrow=none;html=1;rounded=0;entryX=0.961;entryY=-0.124;entryDx=0;entryDy=0;entryPerimeter=0;exitX=0.945;exitY=0.962;exitDx=0;exitDy=0;exitPerimeter=0;endFill=0;startArrow=classic;startFill=1;dashed=1;" edge="1" parent="1">
          <mxGeometry width="50" height="50" relative="1" as="geometry">
            <mxPoint x="274.6200000000001" y="446.99999999999994" as="sourcePoint" />
            <mxPoint x="479" y="448.09999999999997" as="targetPoint" />
          </mxGeometry>
        </mxCell>
        <mxCell id="PbGV8xd9Yo9rjove0Gm5-52" value="Mật khẩu xác nhận không khớp&amp;nbsp;&lt;div&gt;với mật khẩu&lt;/div&gt;" style="edgeLabel;html=1;align=center;verticalAlign=middle;resizable=0;points=[];" vertex="1" connectable="0" parent="PbGV8xd9Yo9rjove0Gm5-51">
          <mxGeometry x="0.0034" relative="1" as="geometry">
            <mxPoint as="offset" />
          </mxGeometry>
        </mxCell>
        <mxCell id="PbGV8xd9Yo9rjove0Gm5-53" value="" style="endArrow=none;html=1;rounded=0;entryX=0.961;entryY=-0.124;entryDx=0;entryDy=0;entryPerimeter=0;exitX=0.933;exitY=1.011;exitDx=0;exitDy=0;exitPerimeter=0;endFill=0;startArrow=classic;startFill=1;dashed=1;" edge="1" parent="1">
          <mxGeometry width="50" height="50" relative="1" as="geometry">
            <mxPoint x="75" y="454.1" as="sourcePoint" />
            <mxPoint x="264.38" y="454.1" as="targetPoint" />
          </mxGeometry>
        </mxCell>
        <mxCell id="PbGV8xd9Yo9rjove0Gm5-54" value="Thông báo mật khẩu&amp;nbsp;&lt;div&gt;xác nhận không khớp&amp;nbsp;&lt;div&gt;với mật khẩu&lt;/div&gt;&lt;/div&gt;" style="edgeLabel;html=1;align=center;verticalAlign=middle;resizable=0;points=[];" vertex="1" connectable="0" parent="PbGV8xd9Yo9rjove0Gm5-53">
          <mxGeometry x="0.0034" relative="1" as="geometry">
            <mxPoint y="1" as="offset" />
          </mxGeometry>
        </mxCell>
        <mxCell id="PbGV8xd9Yo9rjove0Gm5-55" value="" style="endArrow=none;html=1;rounded=0;endFill=0;startArrow=none;startFill=0;dashed=1;exitX=-0.002;exitY=0.314;exitDx=0;exitDy=0;exitPerimeter=0;" edge="1" parent="1">
          <mxGeometry width="50" height="50" relative="1" as="geometry">
            <mxPoint x="-1" y="480" as="sourcePoint" />
            <mxPoint x="720" y="480" as="targetPoint" />
          </mxGeometry>
        </mxCell>
        <mxCell id="PbGV8xd9Yo9rjove0Gm5-56" value="" style="endArrow=classic;html=1;rounded=0;exitX=0.963;exitY=1.008;exitDx=0;exitDy=0;exitPerimeter=0;" edge="1" parent="1">
          <mxGeometry width="50" height="50" relative="1" as="geometry">
            <mxPoint x="490" y="566" as="sourcePoint" />
            <mxPoint x="690" y="566" as="targetPoint" />
          </mxGeometry>
        </mxCell>
        <mxCell id="PbGV8xd9Yo9rjove0Gm5-57" value="Gửi thông tin đăng ký tài khoản" style="edgeLabel;html=1;align=center;verticalAlign=middle;resizable=0;points=[];" vertex="1" connectable="0" parent="PbGV8xd9Yo9rjove0Gm5-56">
          <mxGeometry x="0.0034" relative="1" as="geometry">
            <mxPoint y="-1" as="offset" />
          </mxGeometry>
        </mxCell>
        <mxCell id="PbGV8xd9Yo9rjove0Gm5-58" value="" style="endArrow=none;html=1;rounded=0;entryX=0.961;entryY=-0.124;entryDx=0;entryDy=0;entryPerimeter=0;exitX=0.945;exitY=0.962;exitDx=0;exitDy=0;exitPerimeter=0;endFill=0;startArrow=classic;startFill=1;dashed=1;" edge="1" parent="1">
          <mxGeometry width="50" height="50" relative="1" as="geometry">
            <mxPoint x="279.6200000000001" y="609" as="sourcePoint" />
            <mxPoint x="484" y="610.0999999999999" as="targetPoint" />
          </mxGeometry>
        </mxCell>
        <mxCell id="PbGV8xd9Yo9rjove0Gm5-59" value="Đăng ký tài khoản thành công" style="edgeLabel;html=1;align=center;verticalAlign=middle;resizable=0;points=[];" vertex="1" connectable="0" parent="PbGV8xd9Yo9rjove0Gm5-58">
          <mxGeometry x="0.0034" relative="1" as="geometry">
            <mxPoint as="offset" />
          </mxGeometry>
        </mxCell>
        <mxCell id="PbGV8xd9Yo9rjove0Gm5-60" value="" style="endArrow=none;html=1;rounded=0;entryX=0.961;entryY=-0.124;entryDx=0;entryDy=0;entryPerimeter=0;exitX=0.933;exitY=1.011;exitDx=0;exitDy=0;exitPerimeter=0;endFill=0;startArrow=classic;startFill=1;dashed=1;" edge="1" parent="1">
          <mxGeometry width="50" height="50" relative="1" as="geometry">
            <mxPoint x="80" y="618.1" as="sourcePoint" />
            <mxPoint x="269.38" y="618.1" as="targetPoint" />
          </mxGeometry>
        </mxCell>
        <mxCell id="PbGV8xd9Yo9rjove0Gm5-61" value="Thông báo&amp;nbsp;&lt;div&gt;đăng ký tài khoản thành công&lt;/div&gt;" style="edgeLabel;html=1;align=center;verticalAlign=middle;resizable=0;points=[];" vertex="1" connectable="0" parent="PbGV8xd9Yo9rjove0Gm5-60">
          <mxGeometry x="0.0034" relative="1" as="geometry">
            <mxPoint y="-1" as="offset" />
          </mxGeometry>
        </mxCell>
        <mxCell id="PbGV8xd9Yo9rjove0Gm5-62" value="" style="endArrow=none;html=1;rounded=0;exitX=0.945;exitY=0.962;exitDx=0;exitDy=0;exitPerimeter=0;endFill=0;startArrow=classic;startFill=1;dashed=1;" edge="1" parent="1">
          <mxGeometry width="50" height="50" relative="1" as="geometry">
            <mxPoint x="490.0000000000001" y="599" as="sourcePoint" />
            <mxPoint x="690" y="599" as="targetPoint" />
          </mxGeometry>
        </mxCell>
        <mxCell id="PbGV8xd9Yo9rjove0Gm5-63" value="Đăng ký tài khoản thành công" style="edgeLabel;html=1;align=center;verticalAlign=middle;resizable=0;points=[];" vertex="1" connectable="0" parent="PbGV8xd9Yo9rjove0Gm5-62">
          <mxGeometry x="0.0034" relative="1" as="geometry">
            <mxPoint as="offset" />
          </mxGeometry>
        </mxCell>
        <mxCell id="PbGV8xd9Yo9rjove0Gm5-66" value="" style="endArrow=none;html=1;rounded=0;endFill=0;startArrow=none;startFill=0;dashed=1;exitX=-0.002;exitY=0.314;exitDx=0;exitDy=0;exitPerimeter=0;" edge="1" parent="1">
          <mxGeometry width="50" height="50" relative="1" as="geometry">
            <mxPoint x="-1" y="549" as="sourcePoint" />
            <mxPoint x="720" y="549" as="targetPoint" />
            <Array as="points">
              <mxPoint x="360" y="550" />
            </Array>
          </mxGeometry>
        </mxCell>
        <mxCell id="PbGV8xd9Yo9rjove0Gm5-67" value="" style="endArrow=none;html=1;rounded=0;entryX=0.961;entryY=-0.124;entryDx=0;entryDy=0;entryPerimeter=0;exitX=0.945;exitY=0.962;exitDx=0;exitDy=0;exitPerimeter=0;endFill=0;startArrow=classic;startFill=1;dashed=1;" edge="1" parent="1">
          <mxGeometry width="50" height="50" relative="1" as="geometry">
            <mxPoint x="273.6200000000001" y="511" as="sourcePoint" />
            <mxPoint x="478" y="512.0999999999999" as="targetPoint" />
          </mxGeometry>
        </mxCell>
        <mxCell id="PbGV8xd9Yo9rjove0Gm5-68" value="Yêu cầu đồng ý điều khoản&amp;nbsp;&lt;div&gt;quyền riêng tư và bảo mật&lt;/div&gt;" style="edgeLabel;html=1;align=center;verticalAlign=middle;resizable=0;points=[];" vertex="1" connectable="0" parent="PbGV8xd9Yo9rjove0Gm5-67">
          <mxGeometry x="0.0034" relative="1" as="geometry">
            <mxPoint as="offset" />
          </mxGeometry>
        </mxCell>
        <mxCell id="PbGV8xd9Yo9rjove0Gm5-69" value="" style="endArrow=none;html=1;rounded=0;entryX=0.961;entryY=-0.124;entryDx=0;entryDy=0;entryPerimeter=0;exitX=0.933;exitY=1.011;exitDx=0;exitDy=0;exitPerimeter=0;endFill=0;startArrow=classic;startFill=1;dashed=1;" edge="1" parent="1">
          <mxGeometry width="50" height="50" relative="1" as="geometry">
            <mxPoint x="74" y="518.1" as="sourcePoint" />
            <mxPoint x="263.38" y="518.1" as="targetPoint" />
          </mxGeometry>
        </mxCell>
        <mxCell id="PbGV8xd9Yo9rjove0Gm5-70" value="Thông báo yêu cầu đồng ý điều&amp;nbsp;&lt;div&gt;khoản quyền riêng tư và bảo mật&lt;/div&gt;" style="edgeLabel;html=1;align=center;verticalAlign=middle;resizable=0;points=[];" vertex="1" connectable="0" parent="PbGV8xd9Yo9rjove0Gm5-69">
          <mxGeometry x="0.0034" relative="1" as="geometry">
            <mxPoint x="8" y="-1" as="offset" />
          </mxGeometry>
        </mxCell>
      </root>
    </mxGraphModel>
  </diagram>
</mxfile>
